simulation
nRows=51
nColumns=15
endheader
time  TH_x TH_y TH_z SC_y  SC_z  SC_x  AC_y  AC_z  AC_x  GH_y  GH_z  GH_yy  EL_x  PS_y
0.000000  0.000000  0.000000  0.000000  -28.983391  -1.661766  11.216806  53.947984  -5.851273  -12.380211  18.005483  11.748659  6.397021  25.907359  0.000000
0.030000  0.000000  0.000000  0.000000  -28.926790  -1.359650  12.057897  54.599859  -5.545920  -12.183870  17.161858  12.607789  6.848025  25.751730  0.000000
0.060000  0.000000  0.000000  0.000000  -28.844713  -1.469459  12.766588  55.222393  -5.437844  -12.285958  16.605635  13.815137  6.781861  25.469879  0.000000
0.090000  0.000000  0.000000  0.000000  -28.861321  -1.516782  13.284651  55.575790  -5.457499  -12.377158  16.780434  15.128591  5.938352  25.321230  0.000000
0.120000  0.000000  0.000000  0.000000  -28.850670  -1.450087  13.703001  55.768997  -5.605119  -12.436724  17.354518  16.449250  4.610500  25.192162  0.000000
0.150000  0.000000  0.000000  0.000000  -28.794708  -1.352574  14.053351  55.855097  -5.823981  -12.466634  17.948588  17.779357  3.203867  25.064468  0.000000
0.180000  0.000000  0.000000  0.000000  -28.685424  -1.253973  14.345590  55.888234  -6.066554  -12.504805  18.544244  19.124434  1.704108  24.933357  0.000000
0.210000  0.000000  0.000000  0.000000  -28.527510  -1.153124  14.602352  55.890356  -6.302613  -12.543763  19.083638  20.478628  0.203307  24.791966  0.000000
0.240000  0.000000  0.000000  0.000000  -28.335030  -1.055162  14.837844  55.883706  -6.503685  -12.583590  19.534439  21.842078  -1.264481  24.635788  0.000000
0.270000  0.000000  0.000000  0.000000  -28.128602  -0.956375  15.068737  55.887908  -6.650143  -12.635148  19.927176  23.221860  -2.712878  24.468648  0.000000
0.300000  0.000000  0.000000  0.000000  -27.935974  -0.855476  15.308901  55.904171  -6.728144  -12.684533  20.228072  24.616629  -4.087221  24.296462  0.000000
0.330000  0.000000  0.000000  0.000000  -27.763563  -0.743755  15.564730  55.949316  -6.728899  -12.747741  20.478032  26.032412  -5.424654  24.112295  0.000000
0.360000  0.000000  0.000000  0.000000  -27.631722  -0.624614  15.849382  56.013949  -6.643515  -12.809316  20.638658  27.456986  -6.660048  23.921348  0.000000
0.390000  0.000000  0.000000  0.000000  -27.557234  -0.506365  16.155745  56.125462  -6.457718  -12.885140  20.747269  28.900751  -7.832377  23.715404  0.000000
0.420000  0.000000  0.000000  0.000000  -27.544346  -0.385746  16.493171  56.264908  -6.176698  -12.960740  20.787484  30.350173  -8.906483  23.497633  0.000000
0.450000  0.000000  0.000000  0.000000  -27.593563  -0.266884  16.851625  56.443251  -5.795780  -13.046782  20.788822  31.807150  -9.917293  23.262160  0.000000
0.480000  0.000000  0.000000  0.000000  -27.700610  -0.147180  17.235104  56.644348  -5.324127  -13.129888  20.745063  33.255171  -10.842379  23.010973  0.000000
0.510000  0.000000  0.000000  0.000000  -27.857714  -0.025577  17.634108  56.871651  -4.769154  -13.212983  20.681825  34.691221  -11.711877  22.738994  0.000000
0.540000  0.000000  0.000000  0.000000  -28.059249  0.099808  18.048555  57.113909  -4.142175  -13.282663  20.607998  36.099702  -12.520770  22.448207  0.000000
0.570000  0.000000  0.000000  0.000000  -28.296779  0.229696  18.469840  57.371555  -3.456001  -13.339355  20.548415  37.478879  -13.298424  22.136255  0.000000
0.600000  0.000000  0.000000  0.000000  -28.561914  0.364006  18.896830  57.633925  -2.720751  -13.374727  20.513186  38.815419  -14.045206  21.807549  0.000000
0.630000  0.000000  0.000000  0.000000  -28.843604  0.502317  19.323361  57.898583  -1.949735  -13.391303  20.516131  40.108647  -14.780257  21.459585  0.000000
0.660000  0.000000  0.000000  0.000000  -29.134793  0.643749  19.749875  58.156865  -1.151746  -13.385598  20.560684  41.348668  -15.502618  21.095683  0.000000
0.690000  0.000000  0.000000  0.000000  -29.430675  0.788535  20.172338  58.406412  -0.336973  -13.360480  20.648596  42.535657  -16.221007  20.717929  0.000000
0.720000  0.000000  0.000000  0.000000  -29.729840  0.935871  20.592192  58.645510  0.487332  -13.312804  20.772344  43.662838  -16.928077  20.327786  0.000000
0.750000  0.000000  0.000000  0.000000  -30.029446  1.083191  21.008312  58.872808  1.312139  -13.244451  20.923010  44.731118  -17.623535  19.928689  0.000000
0.780000  0.000000  0.000000  0.000000  -30.330816  1.229219  21.420108  59.090876  2.130241  -13.151132  21.091087  45.738453  -18.301616  19.521740  0.000000
0.810000  0.000000  0.000000  0.000000  -30.635294  1.373362  21.823569  59.303048  2.932007  -13.029067  21.267620  46.689141  -18.962822  19.109904  0.000000
0.840000  0.000000  0.000000  0.000000  -30.947083  1.515204  22.216744  59.516902  3.708326  -12.871109  21.439132  47.584314  -19.599401  18.696566  0.000000
0.870000  0.000000  0.000000  0.000000  -31.270142  1.654587  22.595716  59.739346  4.447829  -12.670815  21.591185  48.429429  -20.206595  18.286913  0.000000
0.900000  0.000000  0.000000  0.000000  -31.609540  1.792572  22.956889  59.977607  5.142047  -12.420276  21.712652  49.228069  -20.776536  17.884881  0.000000
0.930000  0.000000  0.000000  0.000000  -31.966826  1.933747  23.294145  60.234078  5.785933  -12.115390  21.800783  49.985821  -21.307148  17.495210  0.000000
0.960000  0.000000  0.000000  0.000000  -32.341170  2.080811  23.603689  60.505533  6.381596  -11.757690  21.861493  50.705181  -21.800121  17.124688  0.000000
0.990000  0.000000  0.000000  0.000000  -32.727966  2.234842  23.882257  60.782417  6.934527  -11.357083  21.905405  51.389711  -22.261730  16.780919  0.000000
1.020000  0.000000  0.000000  0.000000  -33.119211  2.397940  24.128689  61.050031  7.451707  -10.925782  21.940238  52.038567  -22.693598  16.471514  0.000000
1.050000  0.000000  0.000000  0.000000  -33.507041  2.572276  24.342082  61.295610  7.938081  -10.476478  21.966717  52.650519  -23.092471  16.201891  0.000000
1.080000  0.000000  0.000000  0.000000  -33.888609  2.760424  24.522047  61.509100  8.395725  -10.016107  21.983389  53.222444  -23.452667  15.976100  0.000000
1.110000  0.000000  0.000000  0.000000  -34.263011  2.963569  24.667725  61.684689  8.824737  -9.552706  21.988957  53.751865  -23.769402  15.796400  0.000000
1.140000  0.000000  0.000000  0.000000  -34.628464  3.181604  24.779069  61.816442  9.223169  -9.093232  21.983462  54.233244  -24.039425  15.665664  0.000000
1.170000  0.000000  0.000000  0.000000  -34.980582  3.412150  24.855378  61.901066  9.587590  -8.648980  21.969050  54.659698  -24.260960  15.584109  0.000000
1.200000  0.000000  0.000000  0.000000  -35.312675  3.651387  24.895456  61.934322  9.912127  -8.231102  21.952159  55.019787  -24.437053  15.552688  0.000000
1.230000  0.000000  0.000000  0.000000  -35.614746  3.892252  24.894577  61.914433  10.190505  -7.855624  21.944826  55.300352  -24.572905  15.567732  0.000000
1.260000  0.000000  0.000000  0.000000  -35.873114  4.126469  24.847783  61.838938  10.413381  -7.540367  21.964556  55.481505  -24.682912  15.626627  0.000000
1.290000  0.000000  0.000000  0.000000  -36.071008  4.341451  24.744842  61.706595  10.573254  -7.305423  22.034253  55.539780  -24.780273  15.720955  0.000000
1.320000  0.000000  0.000000  0.000000  -36.186279  4.523125  24.570402  61.515266  10.665951  -7.171836  22.180239  55.442577  -24.892473  15.842967  0.000000
1.350000  0.000000  0.000000  0.000000  -36.196186  4.652168  24.300793  61.262276  10.692473  -7.160704  22.435085  55.154181  -25.040808  15.976978  0.000000
1.380000  0.000000  0.000000  0.000000  -36.077254  4.706795  23.903612  60.945898  10.656085  -7.295560  22.835303  54.634054  -25.269484  16.110210  0.000000
1.410000  0.000000  0.000000  0.000000  -35.813145  4.633976  23.345822  60.573333  10.567216  -7.608183  23.420199  53.848632  -25.601993  16.225354  0.000000
1.440000  0.000000  0.000000  0.000000  -35.444871  4.398460  22.596033  60.187597  10.378605  -8.094841  24.214052  52.796691  -26.078621  16.311045  0.000000
1.470000  0.000000  0.000000  0.000000  -35.121102  3.950898  21.642904  59.902236  9.941133  -8.691367  25.177817  51.549127  -26.671348  16.349616  0.000000
1.500000  0.000000  0.000000  0.000000  -35.060738  3.396740  20.410431  59.814393  8.990534  -9.236571  26.184859  50.214698  -27.270388  16.417367  0.000000
